<svg xmlns="http://www.w3.org/2000/svg" viewBox="0 0 120 120" fill="none" role="img" aria-label="Singharach">
  <rect width="120" height="120" rx="28" fill="url(#logo-bg)"/>
  <path d="M78 38c0-11.046-8.954-20-20-20H48c-11.046 0-20 8.954-20 20 0 9.2 6.24 17.02 14.72 19.28C34.24 79.54 28 87.36 28 96.5c0 11.046 8.954 20 20 20h10c11.046 0 20-8.954 20-20 0-9.2-6.24-17.02-14.72-19.28C65.76 75.46 72 67.64 72 58.5V38Z" stroke="#ffffff" stroke-width="7" stroke-linecap="round" stroke-linejoin="round"/>
  <circle cx="88" cy="88" r="9" fill="#c2410c"/>
  <defs>
    <linearGradient id="logo-bg" x1="16" y1="8" x2="104" y2="112" gradientUnits="userSpaceOnUse">
      <stop stop-color="#1f1b19"/>
      <stop offset="1" stop-color="#110f0e"/>
    </linearGradient>
  </defs>
</svg>
